# xmcd
# 
# Track frame offsets:
#     150
#     12635
#     30818
#     45113
#     64542
#     83519
#     102195
#     120544
#     136902
#     150822
#     161893
#     187170
#     202400
#     215511
# 
# Disc length: 3034
# 
# Revision: 1
# Processed by: cddbd v1.5.2PL0 Copyright (c) Steve Scherf et al.
# Submitted via: fre:ac v1.1beta2
# 
DISCID=af0bd80e
DTITLE=Various Artist - Jazz The 2 Of Us - Disc 1
DYEAR=0
DGENRE=Jazz
TTITLE0=Quincy Jones - Soul Bossa Nova
TTITLE1=Kem - I Get Lifted
TTITLE2=Madeleine Peyroux - Don't Wait Too Long
TTITLE3=Feist - Inside And Out
TTITLE4=Peter Cincotti - St Louis Blues
TTITLE5=De-Phazz - You Stayed
TTITLE6=Jamie Cullum - Mind Trick
TTITLE7=Stan Getz and Joao Gilberto - So Danco Samba
TTITLE8=Ella Fitzgerald - Makin' Whoopee
TTITLE9=Blossom Dearie - Between The Devil And The Deep Blue Sea
TTITLE10=Billie Holiday - Gee Baby, Ain't I Good To You
TTITLE11=Ella Fitzgerald - The Lady Is A Tramp
TTITLE12=Nina Simone - Feeling Good
TTITLE13=Sarah Vaughan - Make Yourself Comfortable
EXTD=
EXTT0=
EXTT1=
EXTT2=
EXTT3=
EXTT4=
EXTT5=
EXTT6=
EXTT7=
EXTT8=
EXTT9=
EXTT10=
EXTT11=
EXTT12=
EXTT13=
PLAYORDER=
